# xmcd CD database file
#
# Track frame offsets:
#	195
#	24300
#	42340
#	61865
#	84467
#	104692
#	120550
#	140807
#	160475
#	181732
#
# Disc length: 2703 seconds
#
# Revision: 0
# Processed by: cddbd v1.5.2PL0 Copyright (c) Steve Scherf et al.
# Submitted via: CDex 2.07
#
DISCID=830a8d0a
DTITLE=Lee Ritenour - Portrait
DYEAR=1991
DGENRE=Jazz
TTITLE0=Asa
TTITLE1=Turn The Heat Up
TTITLE2=Windmill
TTITLE3=White Water
TTITLE4=Portrait
TTITLE5=G-Rit
TTITLE6=Shades In The Shade
TTITLE7=Children's Games
TTITLE8=Runaway
TTITLE9=Route 17
EXTD=YEAR: 1991
EXTT0=
EXTT1=
EXTT2=
EXTT3=
EXTT4=
EXTT5=
EXTT6=
EXTT7=
EXTT8=
EXTT9=
PLAYORDER=
